<svg width="24" height="30" viewBox="0 0 24 30" fill="none" xmlns="http://www.w3.org/2000/svg">
<path d="M16.125 1.70001V3.80001C16.125 5.77961 16.125 6.76941 16.73 7.38401C17.3322 8.00001 18.3044 8.00001 20.25 8.00001H22.3125" stroke="url(#paint0_linear_209_1210)" stroke-width="1.5" stroke-linecap="round" stroke-linejoin="round"/>
<path d="M6.5 13.6H17.5M6.5 17.8H17.5M6.5 22H12.2338M1 20.6V9.4C1 5.4408 1 3.4598 2.20863 2.2306C3.41588 1 5.3615 1 9.25 1H14.9865C15.5475 1 15.8294 1 16.0824 1.1064C16.334 1.2128 16.5334 1.4144 16.9308 1.8204L22.1942 7.1796C22.593 7.5856 22.791 7.7872 22.8955 8.0448C23 8.301 23 8.588 23 9.1592V20.6C23 24.5592 23 26.5402 21.7914 27.7694C20.5841 29 18.6385 29 14.75 29H9.25C5.3615 29 3.41588 29 2.20863 27.7694C1 26.5402 1 24.5592 1 20.6Z" stroke="url(#paint1_linear_209_1210)" stroke-width="1.5" stroke-linecap="round" stroke-linejoin="round"/>
<defs>
<linearGradient id="paint0_linear_209_1210" x1="19.2188" y1="1.70001" x2="19.2188" y2="8.00001" gradientUnits="userSpaceOnUse">
<stop stop-color="#FF8F00"/>
<stop offset="1" stop-color="#FF0D00"/>
</linearGradient>
<linearGradient id="paint1_linear_209_1210" x1="12" y1="1" x2="12" y2="29" gradientUnits="userSpaceOnUse">
<stop stop-color="#FF8F00"/>
<stop offset="1" stop-color="#FF0D00"/>
</linearGradient>
</defs>
</svg>
