<svg width="34" height="28" viewBox="0 0 34 28" fill="none" xmlns="http://www.w3.org/2000/svg">
<path d="M28.0145 14C28.0145 14.4243 27.8487 14.8313 27.5536 15.1313C27.2585 15.4314 26.8582 15.6 26.4408 15.6C26.0235 15.6 25.6232 15.4314 25.3281 15.1313C25.033 14.8313 24.8672 14.4243 24.8672 14C24.8672 13.5756 25.033 13.1687 25.3281 12.8686C25.6232 12.5685 26.0235 12.4 26.4408 12.4C26.8582 12.4 27.2585 12.5685 27.5536 12.8686C27.8487 13.1687 28.0145 13.5756 28.0145 14Z" fill="url(#paint0_linear_209_1219)"/>
<path fill-rule="evenodd" clip-rule="evenodd" d="M13.7633 0H18.6605C21.5528 0 23.844 1.90735e-07 25.6364 0.2448C27.4807 0.4976 28.9741 1.0288 30.1528 2.2256C31.6068 3.7056 32.0711 5.6864 32.2394 8.2576C33.1474 8.6624 33.8335 9.5216 33.9075 10.6096C33.9154 10.7072 33.9154 10.8112 33.9154 10.9072V17.0928C33.9154 17.1888 33.9154 17.2928 33.9091 17.3888C33.8335 18.4768 33.1474 19.3376 32.2394 19.744C32.0711 22.3136 31.6068 24.2944 30.1528 25.7744C28.9741 26.9712 27.4807 27.5024 25.6364 27.7552C23.8425 28 21.5528 28 18.6605 28H13.7633C10.8709 28 8.57971 28 6.78733 27.7552C4.94302 27.5024 3.44963 26.9712 2.27097 25.7744C1.09388 24.576 0.571434 23.0576 0.322799 21.1824C0.0820312 19.3584 0.0820312 17.0304 0.0820312 14.0896V13.9104C0.0820312 10.9696 0.0820312 8.64 0.322799 6.8176C0.571434 4.9424 1.09388 3.424 2.27097 2.2256C3.44963 1.0288 4.94302 0.4976 6.78733 0.2448C8.58128 1.90735e-07 10.8709 0 13.7633 0ZM29.8522 20H26.8025C23.427 20 20.5378 17.3952 20.5378 14C20.5378 10.6048 23.427 8 26.8009 8H29.8506C29.6712 5.8544 29.2668 4.72 28.4816 3.9232C27.8159 3.2464 26.9032 2.84 25.3201 2.624C23.704 2.4032 21.5717 2.4 18.5708 2.4H13.8498C10.8489 2.4 8.71819 2.4032 7.09891 2.624C5.5174 2.84 4.60468 3.2464 3.93903 3.9232C3.27338 4.6 2.87525 5.528 2.66281 7.136C2.44564 8.7808 2.4425 10.9472 2.4425 13.9984C2.4425 17.0496 2.44564 19.2176 2.66281 20.8624C2.87525 22.4704 3.27495 23.3984 3.9406 24.0752C4.60626 24.752 5.51897 25.1584 7.10205 25.3744C8.71976 25.5952 10.8505 25.5984 13.8514 25.5984H18.5723C21.5733 25.5984 23.7056 25.5952 25.3233 25.3744C26.9048 25.1584 27.8175 24.752 28.4831 24.0752C29.2684 23.2784 29.6728 22.1456 29.8522 19.9984M6.3766 7.6C6.3766 7.28174 6.50095 6.97652 6.72229 6.75147C6.94362 6.52643 7.24382 6.4 7.55684 6.4H13.8514C14.1644 6.4 14.4646 6.52643 14.686 6.75147C14.9073 6.97652 15.0316 7.28174 15.0316 7.6C15.0316 7.91826 14.9073 8.22348 14.686 8.44853C14.4646 8.67357 14.1644 8.8 13.8514 8.8H7.55684C7.24382 8.8 6.94362 8.67357 6.72229 8.44853C6.50095 8.22348 6.3766 7.91826 6.3766 7.6ZM31.0419 10.4H26.8025C24.5616 10.4 22.8983 12.0944 22.8983 14C22.8983 15.9056 24.5616 17.6 26.8009 17.6H31.0781C31.4023 17.5792 31.5423 17.3568 31.5533 17.2224V10.7776C31.5423 10.6432 31.4023 10.4208 31.0781 10.4016L31.0419 10.4Z" fill="url(#paint1_linear_209_1219)"/>
<defs>
<linearGradient id="paint0_linear_209_1219" x1="26.4408" y1="12.4" x2="26.4408" y2="15.6" gradientUnits="userSpaceOnUse">
<stop stop-color="#FF8F00"/>
<stop offset="1" stop-color="#FF0D00"/>
</linearGradient>
<linearGradient id="paint1_linear_209_1219" x1="16.9987" y1="0" x2="16.9987" y2="28" gradientUnits="userSpaceOnUse">
<stop stop-color="#FF8F00"/>
<stop offset="1" stop-color="#FF0D00"/>
</linearGradient>
</defs>
</svg>
