<svg width="21" height="25" viewBox="0 0 21 25" fill="none" xmlns="http://www.w3.org/2000/svg">
<path fill-rule="evenodd" clip-rule="evenodd" d="M7 12.1667C7.61884 12.1667 8.21233 12.4125 8.64991 12.8501C9.0875 13.2877 9.33333 13.8812 9.33333 14.5V19.1667C9.33333 19.7855 9.0875 20.379 8.64991 20.8166C8.21233 21.2542 7.61884 21.5 7 21.5H2.33333C1.71449 21.5 1.121 21.2542 0.683417 20.8166C0.245833 20.379 0 19.7855 0 19.1667V14.5C0 13.8812 0.245833 13.2877 0.683417 12.8501C1.121 12.4125 1.71449 12.1667 2.33333 12.1667H7ZM18.6667 12.1667C19.2855 12.1667 19.879 12.4125 20.3166 12.8501C20.7542 13.2877 21 13.8812 21 14.5V19.1667C21 19.7855 20.7542 20.379 20.3166 20.8166C19.879 21.2542 19.2855 21.5 18.6667 21.5H14C13.3812 21.5 12.7877 21.2542 12.3501 20.8166C11.9125 20.379 11.6667 19.7855 11.6667 19.1667V14.5C11.6667 13.8812 11.9125 13.2877 12.3501 12.8501C12.7877 12.4125 13.3812 12.1667 14 12.1667H18.6667ZM7 0.5C7.61884 0.5 8.21233 0.745833 8.64991 1.18342C9.0875 1.621 9.33333 2.21449 9.33333 2.83333V7.5C9.33333 8.11884 9.0875 8.71233 8.64991 9.14991C8.21233 9.5875 7.61884 9.83333 7 9.83333H2.33333C1.71449 9.83333 1.121 9.5875 0.683417 9.14991C0.245833 8.71233 0 8.11884 0 7.5V2.83333C0 2.21449 0.245833 1.621 0.683417 1.18342C1.121 0.745833 1.71449 0.5 2.33333 0.5H7ZM18.6667 0.5C19.2855 0.5 19.879 0.745833 20.3166 1.18342C20.7542 1.621 21 2.21449 21 2.83333V7.5C21 8.11884 20.7542 8.71233 20.3166 9.14991C19.879 9.5875 19.2855 9.83333 18.6667 9.83333H14C13.3812 9.83333 12.7877 9.5875 12.3501 9.14991C11.9125 8.71233 11.6667 8.11884 11.6667 7.5V2.83333C11.6667 2.21449 11.9125 1.621 12.3501 1.18342C12.7877 0.745833 13.3812 0.5 14 0.5H18.6667Z" fill="url(#paint0_linear_54617_29)"/>
<defs>
<linearGradient id="paint0_linear_54617_29" x1="10.5" y1="0.5" x2="10.5" y2="21.5" gradientUnits="userSpaceOnUse">
<stop stop-color="#FF8F00"/>
<stop offset="1" stop-color="#FF5100"/>
</linearGradient>
</defs>
</svg>
