<svg width="25" height="24" viewBox="0 0 25 24" fill="none" xmlns="http://www.w3.org/2000/svg">
<mask id="mask0_24_37" style="mask-type:luminance" maskUnits="userSpaceOnUse" x="2" y="4" width="21" height="16">
<path d="M14.5002 4H10.5002C6.72925 4 4.84325 4 3.67225 5.172C2.82825 6.015 2.59225 7.229 2.52625 9.25H22.4743C22.4083 7.229 22.1722 6.015 21.3282 5.172C20.1572 4 18.2712 4 14.5002 4ZM10.5002 20H14.5002C18.2712 20 20.1572 20 21.3282 18.828C22.4992 17.656 22.5002 15.771 22.5002 12C22.5002 11.5587 22.4996 11.142 22.4982 10.75H2.50225C2.50025 11.142 2.49958 11.5587 2.50025 12C2.50025 15.771 2.50025 17.657 3.67225 18.828C4.84425 19.999 6.72925 20 10.5002 20Z" fill="white"/>
<path fill-rule="evenodd" clip-rule="evenodd" d="M5.75 16C5.75 15.8011 5.82902 15.6103 5.96967 15.4697C6.11032 15.329 6.30109 15.25 6.5 15.25H10.5C10.6989 15.25 10.8897 15.329 11.0303 15.4697C11.171 15.6103 11.25 15.8011 11.25 16C11.25 16.1989 11.171 16.3897 11.0303 16.5303C10.8897 16.671 10.6989 16.75 10.5 16.75H6.5C6.30109 16.75 6.11032 16.671 5.96967 16.5303C5.82902 16.3897 5.75 16.1989 5.75 16ZM12.25 16C12.25 15.8011 12.329 15.6103 12.4697 15.4697C12.6103 15.329 12.8011 15.25 13 15.25H14.5C14.6989 15.25 14.8897 15.329 15.0303 15.4697C15.171 15.6103 15.25 15.8011 15.25 16C15.25 16.1989 15.171 16.3897 15.0303 16.5303C14.8897 16.671 14.6989 16.75 14.5 16.75H13C12.8011 16.75 12.6103 16.671 12.4697 16.5303C12.329 16.3897 12.25 16.1989 12.25 16Z" fill="black"/>
</mask>
<g mask="url(#mask0_24_37)">
<path d="M0.5 0H24.5V24H0.5V0Z" fill="url(#paint0_linear_24_37)"/>
</g>
<defs>
<linearGradient id="paint0_linear_24_37" x1="12.5" y1="0" x2="12.5" y2="24" gradientUnits="userSpaceOnUse">
<stop stop-color="#FF8F00"/>
<stop offset="1" stop-color="#FF5100"/>
</linearGradient>
</defs>
</svg>
