<svg width="19" height="20" viewBox="0 0 19 20" fill="none" xmlns="http://www.w3.org/2000/svg">
<path fill-rule="evenodd" clip-rule="evenodd" d="M1.672 1.172C0.5 2.343 0.5 4.229 0.5 8V12C0.5 15.771 0.5 17.657 1.672 18.828C2.844 19.999 4.729 20 8.5 20H10.5C14.271 20 16.157 20 17.328 18.828C18.499 17.656 18.5 15.771 18.5 12V8C18.5 4.229 18.5 2.343 17.328 1.172C16.156 0.000999928 14.271 0 10.5 0H8.5C4.729 0 2.843 -1.19209e-07 1.672 1.172ZM5.5 7.25C5.30109 7.25 5.11032 7.32902 4.96967 7.46967C4.82902 7.61032 4.75 7.80109 4.75 8C4.75 8.19891 4.82902 8.38968 4.96967 8.53033C5.11032 8.67098 5.30109 8.75 5.5 8.75H13.5C13.6989 8.75 13.8897 8.67098 14.0303 8.53033C14.171 8.38968 14.25 8.19891 14.25 8C14.25 7.80109 14.171 7.61032 14.0303 7.46967C13.8897 7.32902 13.6989 7.25 13.5 7.25H5.5ZM5.5 11.25C5.30109 11.25 5.11032 11.329 4.96967 11.4697C4.82902 11.6103 4.75 11.8011 4.75 12C4.75 12.1989 4.82902 12.3897 4.96967 12.5303C5.11032 12.671 5.30109 12.75 5.5 12.75H10.5C10.6989 12.75 10.8897 12.671 11.0303 12.5303C11.171 12.3897 11.25 12.1989 11.25 12C11.25 11.8011 11.171 11.6103 11.0303 11.4697C10.8897 11.329 10.6989 11.25 10.5 11.25H5.5Z" fill="url(#paint0_linear_54617_22)"/>
<defs>
<linearGradient id="paint0_linear_54617_22" x1="9.5" y1="0" x2="9.5" y2="20" gradientUnits="userSpaceOnUse">
<stop stop-color="#FF8F00"/>
<stop offset="1" stop-color="#FF5100"/>
</linearGradient>
</defs>
</svg>
