<svg width="569" height="292" viewBox="0 0 569 292" fill="none" xmlns="http://www.w3.org/2000/svg">
<g filter="url(#filter0_d_176_3501)">
<rect x="114" y="93" width="341" height="64" rx="14" fill="url(#paint0_linear_176_3501)" shape-rendering="crispEdges"/>
<rect x="115.5" y="94.5" width="338" height="61" rx="12.5" stroke="url(#paint1_linear_176_3501)" stroke-width="3" shape-rendering="crispEdges"/>
<path d="M209.598 123.047H206.487C206.43 122.644 206.314 122.287 206.139 121.974C205.964 121.657 205.739 121.387 205.464 121.165C205.19 120.942 204.873 120.772 204.513 120.653C204.158 120.535 203.772 120.476 203.355 120.476C202.602 120.476 201.946 120.663 201.388 121.037C200.829 121.406 200.396 121.946 200.088 122.656C199.78 123.362 199.626 124.219 199.626 125.227C199.626 126.264 199.78 127.135 200.088 127.841C200.401 128.546 200.836 129.079 201.395 129.439C201.954 129.799 202.6 129.979 203.334 129.979C203.746 129.979 204.127 129.924 204.477 129.815C204.832 129.706 205.147 129.548 205.422 129.339C205.696 129.126 205.924 128.868 206.104 128.565C206.288 128.262 206.416 127.917 206.487 127.528L209.598 127.543C209.518 128.21 209.316 128.854 208.994 129.474C208.677 130.09 208.249 130.642 207.709 131.129C207.174 131.612 206.535 131.996 205.791 132.28C205.053 132.559 204.217 132.699 203.284 132.699C201.987 132.699 200.827 132.405 199.804 131.818C198.786 131.231 197.981 130.381 197.389 129.268C196.802 128.156 196.509 126.809 196.509 125.227C196.509 123.641 196.807 122.292 197.403 121.179C198 120.066 198.81 119.219 199.832 118.636C200.855 118.049 202.006 117.756 203.284 117.756C204.127 117.756 204.908 117.874 205.628 118.111C206.352 118.348 206.994 118.693 207.553 119.148C208.111 119.598 208.566 120.149 208.916 120.803C209.271 121.456 209.499 122.204 209.598 123.047ZM216.675 132.713C215.572 132.713 214.618 132.479 213.813 132.01C213.013 131.536 212.395 130.878 211.96 130.036C211.524 129.188 211.306 128.205 211.306 127.088C211.306 125.961 211.524 124.976 211.96 124.134C212.395 123.286 213.013 122.628 213.813 122.159C214.618 121.686 215.572 121.449 216.675 121.449C217.779 121.449 218.73 121.686 219.531 122.159C220.335 122.628 220.956 123.286 221.391 124.134C221.827 124.976 222.045 125.961 222.045 127.088C222.045 128.205 221.827 129.188 221.391 130.036C220.956 130.878 220.335 131.536 219.531 132.01C218.73 132.479 217.779 132.713 216.675 132.713ZM216.69 130.369C217.192 130.369 217.611 130.227 217.947 129.943C218.283 129.654 218.536 129.261 218.707 128.764C218.882 128.267 218.969 127.701 218.969 127.067C218.969 126.432 218.882 125.866 218.707 125.369C218.536 124.872 218.283 124.479 217.947 124.19C217.611 123.902 217.192 123.757 216.69 123.757C216.183 123.757 215.757 123.902 215.411 124.19C215.07 124.479 214.812 124.872 214.637 125.369C214.467 125.866 214.381 126.432 214.381 127.067C214.381 127.701 214.467 128.267 214.637 128.764C214.812 129.261 215.07 129.654 215.411 129.943C215.757 130.227 216.183 130.369 216.69 130.369ZM227.038 126.193V132.5H224.012V121.591H226.896V123.516H227.023C227.265 122.881 227.67 122.379 228.238 122.01C228.806 121.636 229.495 121.449 230.305 121.449C231.062 121.449 231.723 121.615 232.286 121.946C232.85 122.277 233.288 122.751 233.6 123.366C233.913 123.977 234.069 124.706 234.069 125.554V132.5H231.043V126.094C231.048 125.426 230.878 124.905 230.532 124.531C230.186 124.152 229.71 123.963 229.104 123.963C228.697 123.963 228.337 124.051 228.025 124.226C227.717 124.401 227.476 124.657 227.3 124.993C227.13 125.324 227.042 125.724 227.038 126.193ZM242.256 121.591V123.864H235.686V121.591H242.256ZM237.178 118.977H240.203V129.148C240.203 129.427 240.246 129.645 240.331 129.801C240.417 129.953 240.535 130.059 240.686 130.121C240.843 130.182 241.023 130.213 241.226 130.213C241.368 130.213 241.51 130.201 241.652 130.178C241.794 130.149 241.903 130.128 241.979 130.114L242.455 132.365C242.303 132.412 242.09 132.467 241.816 132.528C241.541 132.595 241.207 132.635 240.814 132.649C240.085 132.678 239.446 132.58 238.897 132.358C238.352 132.135 237.928 131.79 237.625 131.321C237.322 130.852 237.173 130.26 237.178 129.545V118.977ZM247.338 132.706C246.642 132.706 246.021 132.585 245.477 132.344C244.932 132.098 244.502 131.735 244.184 131.257C243.872 130.774 243.716 130.173 243.716 129.453C243.716 128.847 243.827 128.338 244.049 127.926C244.272 127.514 244.575 127.183 244.958 126.932C245.342 126.681 245.778 126.491 246.265 126.364C246.758 126.236 247.274 126.146 247.814 126.094C248.448 126.027 248.959 125.966 249.348 125.909C249.736 125.848 250.018 125.758 250.193 125.639C250.368 125.521 250.456 125.346 250.456 125.114V125.071C250.456 124.621 250.314 124.273 250.029 124.027C249.75 123.781 249.352 123.658 248.836 123.658C248.292 123.658 247.859 123.778 247.537 124.02C247.215 124.257 247.002 124.555 246.897 124.915L244.099 124.688C244.241 124.025 244.52 123.452 244.937 122.969C245.354 122.481 245.891 122.107 246.549 121.847C247.212 121.581 247.979 121.449 248.85 121.449C249.457 121.449 250.037 121.52 250.591 121.662C251.149 121.804 251.644 122.024 252.075 122.322C252.511 122.621 252.854 123.004 253.105 123.473C253.356 123.937 253.481 124.493 253.481 125.142V132.5H250.612V130.987H250.527C250.351 131.328 250.117 131.629 249.824 131.889C249.53 132.145 249.177 132.346 248.765 132.493C248.353 132.635 247.877 132.706 247.338 132.706ZM248.204 130.618C248.649 130.618 249.042 130.53 249.383 130.355C249.724 130.175 249.992 129.934 250.186 129.631C250.38 129.328 250.477 128.984 250.477 128.601V127.443C250.382 127.505 250.252 127.562 250.086 127.614C249.925 127.661 249.743 127.706 249.539 127.749C249.336 127.786 249.132 127.822 248.929 127.855C248.725 127.884 248.54 127.91 248.375 127.933C248.02 127.985 247.709 128.068 247.444 128.182C247.179 128.295 246.973 128.449 246.826 128.643C246.68 128.833 246.606 129.07 246.606 129.354C246.606 129.766 246.755 130.08 247.054 130.298C247.357 130.511 247.74 130.618 248.204 130.618ZM260.757 132.713C259.64 132.713 258.679 132.476 257.874 132.003C257.074 131.525 256.458 130.862 256.027 130.014C255.601 129.167 255.388 128.191 255.388 127.088C255.388 125.971 255.604 124.991 256.034 124.148C256.47 123.3 257.088 122.64 257.888 122.166C258.688 121.688 259.64 121.449 260.743 121.449C261.695 121.449 262.528 121.622 263.243 121.967C263.958 122.313 264.524 122.798 264.941 123.423C265.357 124.048 265.587 124.782 265.63 125.625H262.775C262.694 125.08 262.481 124.643 262.135 124.311C261.794 123.975 261.347 123.807 260.793 123.807C260.324 123.807 259.915 123.935 259.564 124.19C259.219 124.441 258.949 124.808 258.755 125.291C258.56 125.774 258.463 126.359 258.463 127.045C258.463 127.741 258.558 128.333 258.748 128.821C258.942 129.309 259.214 129.68 259.564 129.936C259.915 130.192 260.324 130.32 260.793 130.32C261.139 130.32 261.449 130.249 261.723 130.107C262.003 129.964 262.232 129.759 262.412 129.489C262.597 129.214 262.718 128.885 262.775 128.501H265.63C265.582 129.335 265.355 130.069 264.948 130.703C264.545 131.333 263.989 131.825 263.279 132.18C262.569 132.536 261.728 132.713 260.757 132.713ZM273.369 121.591V123.864H266.8V121.591H273.369ZM268.291 118.977H271.317V129.148C271.317 129.427 271.359 129.645 271.445 129.801C271.53 129.953 271.648 130.059 271.8 130.121C271.956 130.182 272.136 130.213 272.339 130.213C272.482 130.213 272.624 130.201 272.766 130.178C272.908 130.149 273.017 130.128 273.092 130.114L273.568 132.365C273.417 132.412 273.204 132.467 272.929 132.528C272.654 132.595 272.321 132.635 271.928 132.649C271.198 132.678 270.559 132.58 270.01 132.358C269.465 132.135 269.042 131.79 268.739 131.321C268.436 130.852 268.286 130.26 268.291 129.545V118.977ZM293.392 125.227C293.392 126.813 293.092 128.163 292.49 129.276C291.894 130.388 291.079 131.238 290.047 131.825C289.02 132.408 287.864 132.699 286.581 132.699C285.289 132.699 284.129 132.405 283.101 131.818C282.074 131.231 281.262 130.381 280.665 129.268C280.069 128.156 279.77 126.809 279.77 125.227C279.77 123.641 280.069 122.292 280.665 121.179C281.262 120.066 282.074 119.219 283.101 118.636C284.129 118.049 285.289 117.756 286.581 117.756C287.864 117.756 289.02 118.049 290.047 118.636C291.079 119.219 291.894 120.066 292.49 121.179C293.092 122.292 293.392 123.641 293.392 125.227ZM290.275 125.227C290.275 124.2 290.121 123.333 289.813 122.628C289.51 121.922 289.081 121.387 288.527 121.023C287.973 120.658 287.325 120.476 286.581 120.476C285.838 120.476 285.189 120.658 284.635 121.023C284.081 121.387 283.65 121.922 283.343 122.628C283.04 123.333 282.888 124.2 282.888 125.227C282.888 126.255 283.04 127.121 283.343 127.827C283.65 128.532 284.081 129.067 284.635 129.432C285.189 129.796 285.838 129.979 286.581 129.979C287.325 129.979 287.973 129.796 288.527 129.432C289.081 129.067 289.51 128.532 289.813 127.827C290.121 127.121 290.275 126.255 290.275 125.227ZM302.609 127.855V121.591H305.635V132.5H302.73V130.518H302.616C302.37 131.158 301.961 131.671 301.388 132.06C300.82 132.448 300.126 132.642 299.307 132.642C298.578 132.642 297.936 132.476 297.382 132.145C296.828 131.813 296.395 131.342 296.082 130.732C295.775 130.121 295.618 129.389 295.614 128.537V121.591H298.639V127.997C298.644 128.641 298.817 129.15 299.158 129.524C299.499 129.898 299.955 130.085 300.528 130.085C300.893 130.085 301.234 130.002 301.551 129.837C301.868 129.666 302.124 129.415 302.318 129.084C302.517 128.752 302.614 128.343 302.609 127.855ZM308.055 132.5V121.591H310.988V123.494H311.102C311.301 122.817 311.635 122.306 312.103 121.96C312.572 121.61 313.112 121.435 313.723 121.435C313.874 121.435 314.038 121.444 314.213 121.463C314.388 121.482 314.542 121.508 314.674 121.541V124.226C314.532 124.183 314.336 124.145 314.085 124.112C313.834 124.079 313.604 124.062 313.396 124.062C312.951 124.062 312.553 124.16 312.203 124.354C311.857 124.543 311.583 124.808 311.379 125.149C311.18 125.49 311.081 125.883 311.081 126.328V132.5H308.055ZM320.37 120.49V117.955H332.316V120.49H327.863V132.5H324.824V120.49H320.37ZM337.616 132.713C336.494 132.713 335.528 132.486 334.719 132.031C333.914 131.572 333.294 130.923 332.858 130.085C332.422 129.242 332.205 128.246 332.205 127.095C332.205 125.973 332.422 124.988 332.858 124.141C333.294 123.293 333.907 122.633 334.697 122.159C335.493 121.686 336.426 121.449 337.496 121.449C338.215 121.449 338.885 121.565 339.506 121.797C340.131 122.024 340.675 122.367 341.139 122.827C341.608 123.286 341.973 123.864 342.233 124.56C342.493 125.251 342.624 126.061 342.624 126.989V127.82H333.412V125.945H339.776C339.776 125.509 339.681 125.123 339.491 124.787C339.302 124.451 339.039 124.188 338.703 123.999C338.372 123.804 337.986 123.707 337.545 123.707C337.086 123.707 336.679 123.814 336.324 124.027C335.973 124.235 335.699 124.517 335.5 124.872C335.301 125.223 335.199 125.613 335.195 126.044V127.827C335.195 128.366 335.294 128.833 335.493 129.226C335.696 129.619 335.983 129.922 336.352 130.135C336.722 130.348 337.16 130.455 337.666 130.455C338.002 130.455 338.31 130.407 338.589 130.312C338.869 130.218 339.108 130.076 339.307 129.886C339.506 129.697 339.657 129.465 339.761 129.19L342.56 129.375C342.418 130.047 342.126 130.634 341.686 131.136C341.25 131.634 340.687 132.022 339.996 132.301C339.309 132.576 338.516 132.713 337.616 132.713ZM347.709 132.706C347.013 132.706 346.393 132.585 345.848 132.344C345.304 132.098 344.873 131.735 344.555 131.257C344.243 130.774 344.087 130.173 344.087 129.453C344.087 128.847 344.198 128.338 344.42 127.926C344.643 127.514 344.946 127.183 345.33 126.932C345.713 126.681 346.149 126.491 346.636 126.364C347.129 126.236 347.645 126.146 348.185 126.094C348.819 126.027 349.33 125.966 349.719 125.909C350.107 125.848 350.389 125.758 350.564 125.639C350.739 125.521 350.827 125.346 350.827 125.114V125.071C350.827 124.621 350.685 124.273 350.401 124.027C350.121 123.781 349.723 123.658 349.207 123.658C348.663 123.658 348.23 123.778 347.908 124.02C347.586 124.257 347.373 124.555 347.268 124.915L344.47 124.688C344.612 124.025 344.892 123.452 345.308 122.969C345.725 122.481 346.262 122.107 346.92 121.847C347.583 121.581 348.35 121.449 349.222 121.449C349.828 121.449 350.408 121.52 350.962 121.662C351.52 121.804 352.015 122.024 352.446 122.322C352.882 122.621 353.225 123.004 353.476 123.473C353.727 123.937 353.852 124.493 353.852 125.142V132.5H350.983V130.987H350.898C350.723 131.328 350.488 131.629 350.195 131.889C349.901 132.145 349.548 132.346 349.136 132.493C348.724 132.635 348.249 132.706 347.709 132.706ZM348.575 130.618C349.02 130.618 349.413 130.53 349.754 130.355C350.095 130.175 350.363 129.934 350.557 129.631C350.751 129.328 350.848 128.984 350.848 128.601V127.443C350.753 127.505 350.623 127.562 350.457 127.614C350.296 127.661 350.114 127.706 349.911 127.749C349.707 127.786 349.503 127.822 349.3 127.855C349.096 127.884 348.911 127.91 348.746 127.933C348.391 127.985 348.08 128.068 347.815 128.182C347.55 128.295 347.344 128.449 347.197 128.643C347.051 128.833 346.977 129.07 346.977 129.354C346.977 129.766 347.126 130.08 347.425 130.298C347.728 130.511 348.111 130.618 348.575 130.618ZM356.2 132.5V121.591H359.083V123.516H359.211C359.438 122.876 359.817 122.372 360.347 122.003C360.878 121.634 361.512 121.449 362.251 121.449C362.999 121.449 363.636 121.636 364.161 122.01C364.687 122.379 365.037 122.881 365.212 123.516H365.326C365.549 122.891 365.951 122.391 366.533 122.017C367.121 121.638 367.814 121.449 368.614 121.449C369.632 121.449 370.459 121.773 371.093 122.422C371.732 123.066 372.052 123.98 372.052 125.163V132.5H369.033V125.76C369.033 125.154 368.872 124.699 368.55 124.396C368.228 124.093 367.826 123.942 367.343 123.942C366.794 123.942 366.365 124.117 366.058 124.467C365.75 124.813 365.596 125.27 365.596 125.838V132.5H362.663V125.696C362.663 125.161 362.509 124.735 362.201 124.418C361.898 124.1 361.498 123.942 361.001 123.942C360.665 123.942 360.362 124.027 360.092 124.197C359.826 124.363 359.616 124.598 359.46 124.901C359.303 125.199 359.225 125.549 359.225 125.952V132.5H356.2Z" fill="white"/>
</g>
<defs>
<filter id="filter0_d_176_3501" x="0" y="0" width="569" height="292" filterUnits="userSpaceOnUse" color-interpolation-filters="sRGB">
<feFlood flood-opacity="0" result="BackgroundImageFix"/>
<feColorMatrix in="SourceAlpha" type="matrix" values="0 0 0 0 0 0 0 0 0 0 0 0 0 0 0 0 0 0 127 0" result="hardAlpha"/>
<feOffset dy="21"/>
<feGaussianBlur stdDeviation="57"/>
<feComposite in2="hardAlpha" operator="out"/>
<feColorMatrix type="matrix" values="0 0 0 0 0 0 0 0 0 0 0 0 0 0 0 0 0 0 0.18 0"/>
<feBlend mode="normal" in2="BackgroundImageFix" result="effect1_dropShadow_176_3501"/>
<feBlend mode="normal" in="SourceGraphic" in2="effect1_dropShadow_176_3501" result="shape"/>
</filter>
<linearGradient id="paint0_linear_176_3501" x1="114" y1="125" x2="416.954" y2="17.64" gradientUnits="userSpaceOnUse">
<stop stop-color="#FF8F00"/>
<stop offset="1" stop-color="#FF0D00"/>
</linearGradient>
<linearGradient id="paint1_linear_176_3501" x1="114" y1="125" x2="416.954" y2="17.64" gradientUnits="userSpaceOnUse">
<stop stop-color="#FF8F00"/>
<stop offset="1" stop-color="#FF0D00"/>
</linearGradient>
</defs>
</svg>
