<svg width="417" height="417" viewBox="0 0 417 417" fill="none" xmlns="http://www.w3.org/2000/svg">
<path d="M223.33 225.31H168.582V151.297H222.734C235.827 151.297 244.804 151.941 249.416 153.182C256.46 155.093 262.211 159.156 266.502 165.232C270.89 171.355 273.073 178.895 273.073 187.548C273.073 199.523 269.351 208.873 262.013 215.395C254.548 221.988 241.504 225.31 223.33 225.31Z" stroke="url(#paint0_linear_1_680)" stroke-width="3" stroke-miterlimit="10"/>
<path d="M208.5 2C94.4626 2 2 94.4626 2 208.5C2 322.537 94.4626 415 208.5 415C322.537 415 415 322.537 415 208.5C415 94.4626 322.537 2 208.5 2ZM208.5 379.789C206.791 379.789 205.103 379.762 203.367 379.714V350.977C205.055 351.051 206.791 351.099 208.5 351.099C287.102 351.099 351.099 287.151 351.099 208.5C351.099 129.871 287.102 65.9006 208.5 65.9006C129.871 65.9006 65.9006 129.876 65.9006 208.5C65.9006 258.834 92.135 303.145 131.612 328.512C132.304 328.959 133.076 329.38 133.794 329.801V119.68H220.282C235.111 119.68 246.64 120.399 254.6 121.837C265.808 123.695 275.355 127.342 283.039 132.699C290.802 138.007 297.075 145.568 301.734 155.163C306.394 164.662 308.752 175.274 308.752 186.653C308.752 206.142 302.453 222.904 290.004 236.444C277.534 250.032 254.942 256.927 222.882 256.927H168.581V345.397H168.607V375.076C167.862 374.901 167.121 374.704 166.402 374.507C154.225 371.434 142.574 367.042 131.612 361.488C75.6711 333.299 37.2334 275.298 37.2334 208.5C37.2334 114.052 114.052 37.2334 208.5 37.2334C302.948 37.2334 379.789 114.052 379.789 208.5C379.789 302.948 302.948 379.789 208.5 379.789Z" stroke="url(#paint1_linear_1_680)" stroke-width="3" stroke-miterlimit="10"/>
<defs>
<linearGradient id="paint0_linear_1_680" x1="220.825" y1="150.639" x2="220.825" y2="225.969" gradientUnits="userSpaceOnUse">
<stop stop-color="#F89A38"/>
<stop offset="1" stop-color="#F73022"/>
</linearGradient>
<linearGradient id="paint1_linear_1_680" x1="208.5" y1="1.34315" x2="208.5" y2="415.657" gradientUnits="userSpaceOnUse">
<stop stop-color="#F89A38"/>
<stop offset="1" stop-color="#F73022"/>
</linearGradient>
</defs>
</svg>
