<svg width="280" height="280" viewBox="0 0 280 280" fill="none" xmlns="http://www.w3.org/2000/svg">
<g opacity="0.3">
<path d="M149.981 151.315H113.129V101.495H149.58C158.393 101.495 164.436 101.929 167.54 102.764C172.281 104.051 176.152 106.786 179.041 110.875C181.995 114.997 183.464 120.072 183.464 125.896C183.464 133.957 180.959 140.251 176.02 144.641C170.995 149.079 162.214 151.315 149.981 151.315Z" stroke="url(#paint0_linear_1_722)" stroke-width="2" stroke-miterlimit="10"/>
<path d="M140 1C63.2387 1 1 63.2387 1 140C1 216.761 63.2387 279 140 279C216.761 279 279 216.761 279 140C279 63.2387 216.761 1 140 1ZM140 255.298C138.849 255.298 137.713 255.281 136.545 255.248V235.904C137.681 235.955 138.849 235.987 140 235.987C192.909 235.987 235.987 192.942 235.987 140C235.987 87.0732 192.909 44.013 140 44.013C87.0732 44.013 44.013 87.0761 44.013 140C44.013 173.881 61.672 203.708 88.2446 220.783C88.7107 221.084 89.23 221.367 89.7139 221.65V80.2132H147.931C157.913 80.2132 165.673 80.6971 171.031 81.6649C178.575 82.9159 185.002 85.3707 190.174 88.9763C195.399 92.5494 199.622 97.6391 202.758 104.098C205.894 110.492 207.482 117.635 207.482 125.295C207.482 138.413 203.242 149.695 194.862 158.81C186.468 167.956 171.261 172.598 149.681 172.598H113.129V232.148H113.147V252.126C112.646 252.008 112.147 251.876 111.663 251.743C103.466 249.675 95.6239 246.718 88.2446 242.98C50.5897 224.005 24.7165 184.963 24.7165 140C24.7165 76.4247 76.4247 24.7165 140 24.7165C203.575 24.7165 255.298 76.4247 255.298 140C255.298 203.575 203.575 255.298 140 255.298Z" stroke="url(#paint1_linear_1_722)" stroke-width="2" stroke-miterlimit="10"/>
</g>
<defs>
<linearGradient id="paint0_linear_1_722" x1="148.295" y1="101.052" x2="148.295" y2="151.759" gradientUnits="userSpaceOnUse">
<stop stop-color="#F89A38"/>
<stop offset="1" stop-color="#F73022"/>
</linearGradient>
<linearGradient id="paint1_linear_1_722" x1="140" y1="0.557861" x2="140" y2="279.442" gradientUnits="userSpaceOnUse">
<stop stop-color="#F89A38"/>
<stop offset="1" stop-color="#F73022"/>
</linearGradient>
</defs>
</svg>
